<svg enable-background="new 0 0 512 512" viewBox="0 0 512 512" xmlns="http://www.w3.org/2000/svg"><path d="m0 0h512v512h-512z" fill="#f0f0f0"/><path d="m0 64h512v64h-512z" fill="#d80027"/><path d="m0 192h512v64h-512z" fill="#d80027"/><path d="m0 320h512v64h-512z" fill="#d80027"/><path d="m0 448h512v64h-512z" fill="#d80027"/><path d="m0 0h256v275.69h-256z" fill="#2e52b2"/><g fill="#f0f0f0"><path d="m51.518 115.318-5.594 17.211h-18.098l14.643 10.634-5.594 17.212 14.643-10.634 14.637 10.634-5.595-17.212 14.643-10.634h-18.097z"/><path d="m57.106 194.645-5.588-17.211-5.594 17.211h-18.098l14.643 10.634-5.594 17.211 14.643-10.633 14.637 10.633-5.595-17.211 14.643-10.634z"/><path d="m51.518 53.202-5.594 17.212h-18.098l14.643 10.633-5.594 17.212 14.643-10.634 14.637 10.634-5.595-17.212 14.643-10.633h-18.097z"/><path d="m128.003 115.318-5.594 17.211h-18.098l14.643 10.634-5.594 17.212 14.643-10.634 14.637 10.634-5.595-17.212 14.644-10.634h-18.098z"/><path d="m133.591 194.645-5.588-17.211-5.594 17.211h-18.098l14.643 10.634-5.594 17.211 14.643-10.633 14.637 10.633-5.595-17.211 14.644-10.634z"/><path d="m210.076 194.645-5.587-17.211-5.595 17.211h-18.097l14.643 10.634-5.595 17.211 14.644-10.633 14.636 10.633-5.594-17.211 14.643-10.634z"/><path d="m204.489 115.318-5.595 17.211h-18.097l14.643 10.634-5.595 17.212 14.644-10.634 14.636 10.634-5.594-17.212 14.643-10.634h-18.098z"/><path d="m128.003 53.202-5.594 17.212h-18.098l14.643 10.633-5.594 17.212 14.643-10.634 14.637 10.634-5.595-17.212 14.644-10.633h-18.098z"/><path d="m204.489 53.202-5.595 17.212h-18.097l14.643 10.633-5.595 17.212 14.644-10.634 14.636 10.634-5.594-17.212 14.643-10.633h-18.098z"/></g></svg>