<svg height="164" viewBox="0 0 190 164" width="190" xmlns="http://www.w3.org/2000/svg" xmlns:xlink="http://www.w3.org/1999/xlink"><clipPath id="a"><path clip-rule="evenodd" d="m179.685-85.961-.073 26.591-14.483-.04.074-26.751a3.332 3.332 0 0 0 -3.286-3.368l-15.156-.042.039-14.429 11.831.033 4.695.377a17.807 17.807 0 0 1 6.734 1.922 17.915 17.915 0 0 1 7.669 7.712 17.118 17.118 0 0 1 1.927 7.472c0 .16.031.332.031.524"/></clipPath><clipPath id="b"><path d="m-142 597h375v-812h-375z"/></clipPath><clipPath id="c"><path clip-rule="evenodd" d="m165.2-86.161-.073 26.72-14.954-.042a3.41 3.41 0 0 1 -3.468-2.993c-.01-.107-.02-.225-.02-.343l.074-26.751 15.157.042a3.33 3.33 0 0 1 3.285 3.367"/></clipPath><clipPath id="d"><path clip-rule="evenodd" d="m165.129-59.441-.04 14.462-11.851-.033-4.663-.409a18.213 18.213 0 0 1 -6.733-1.89 18.1 18.1 0 0 1 -7.67-7.712 17.265 17.265 0 0 1 -1.937-7.472l.075-27.115 14.451.04-.074 26.752c0 .117.011.235.02.342a3.312 3.312 0 0 0 3.3 2.993z"/></clipPath><clipPath id="e"><path clip-rule="evenodd" d="m0-59.1h20.576v59.062h-20.576z"/></clipPath><clipPath id="f"><path d="m-1-60h22v60h-22z"/></clipPath><clipPath id="g"><path clip-rule="evenodd" d="m20.55-.038a22.4 22.4 0 0 1 -8.457-2.416 22.508 22.508 0 0 1 -9.627-9.653 22.32 22.32 0 0 1 -2.466-10.258v-36.735l9.705.026-.105 36.736a12.739 12.739 0 0 0 10.972 12.7z"/></clipPath><clipPath id="h"><path d="m0 0h21v-60h-21z"/></clipPath><clipPath id="i"><path clip-rule="evenodd" d="m57.92-2.525a22.469 22.469 0 0 0 9.68-9.606 22.289 22.289 0 0 0 2.52-10.234v-22.566h-9.6v22.54a12.778 12.778 0 0 1 -12.78 12.756 12.785 12.785 0 0 1 -12.716-12.826v-22.47h-9.591v22.444a22.327 22.327 0 0 0 2.467 10.258 22.238 22.238 0 0 0 9.614 9.653 22.435 22.435 0 0 0 10.2 2.493 22.072 22.072 0 0 0 10.206-2.442"/></clipPath><clipPath id="j"><path clip-rule="evenodd" d="m115.283-.084.026-9.55h-18.063a12.823 12.823 0 0 1 -12.7-12.877 12.755 12.755 0 0 1 12.77-12.711l18.063.049.027-9.757h-18.064a22.16 22.16 0 0 0 -10.2 2.556 22.6 22.6 0 0 0 -9.706 9.644 22.272 22.272 0 0 0 -2.496 10.193 22.305 22.305 0 0 0 2.46 10.258 22.478 22.478 0 0 0 9.626 9.653 22.13 22.13 0 0 0 10.194 2.542z"/></clipPath><clipPath id="k"><path clip-rule="evenodd" d="m132.366-.038v-44.893h-9.6v44.866z"/></clipPath><text fill="#009b71" font-family="Roboto-Bold, Roboto" font-size="32" font-weight="700" letter-spacing=".01em" transform="translate(0 155)"><tspan x="0" y="0">Waterpoint</tspan></text><g transform="translate(10 104)"><g clip-path="url(#a)"><g clip-path="url(#b)"><path d="m141.761-109h42.924v54.63h-42.924z" fill="#fecb40"/></g></g><g clip-path="url(#c)"><g clip-path="url(#b)"><path d="m141.686-94.57h28.514v40.129h-28.514z" fill="#f69327"/></g></g><g clip-path="url(#d)"><g clip-path="url(#b)"><path d="m127.234-94.61h42.895v54.63h-42.895z" fill="#ef5928"/></g></g><g clip-path="url(#e)"><g clip-path="url(#b)"><g clip-path="url(#f)"><g clip-path="url(#g)"><g clip-path="url(#h)"><path d="m-5-64.1h30.576v69.062h-30.576z" fill="#009a71"/></g></g></g></g></g><g clip-path="url(#i)"><g clip-path="url(#b)"><path d="m20.433-49.931h54.684v54.848h-54.684z" fill="#009a71"/></g></g><g clip-path="url(#j)"><g clip-path="url(#b)"><path d="m69.94-49.931h50.466v54.847h-50.466z" fill="#009a71"/></g></g><g clip-path="url(#k)"><g clip-path="url(#b)"><path d="m117.764-49.931h19.6v54.893h-19.6z" fill="#009a71"/></g></g></g></svg>