<svg height="420" viewBox="0 0 580 420" width="580" xmlns="http://www.w3.org/2000/svg" xmlns:xlink="http://www.w3.org/1999/xlink"><mask id="a" fill="#fff"/><mask id="b" fill="#fff"><path d="m0 0h580v420h-580z" fill="#fff" fill-rule="evenodd"/></mask><mask id="c" fill="#fff"><path d="m0 0h580v420h-580z" fill="#fff" fill-rule="evenodd"/></mask><mask id="d" fill="#fff"><path d="m0 0h580v420h-580z" fill="#fff" fill-rule="evenodd"/></mask><mask id="e" fill="#fff"><path d="m0 0h580v420h-580z" fill="#fff" fill-rule="evenodd"/></mask><mask id="f" fill="#fff"><path d="m0 0h580v420h-580z" fill="#fff" fill-rule="evenodd"/></mask><mask id="g" fill="#fff"><path d="m0 0h580v420h-580z" fill="#fff" fill-rule="evenodd"/></mask><mask id="h" fill="#fff"><path d="m0 0h580v420h-580z" fill="#fff" fill-rule="evenodd"/></mask><g fill="none" fill-rule="evenodd"><path d="m0 0h580v420h-580z" fill="#fff" fill-rule="nonzero"/><path d="m0 378h580v42h-580z" fill="#191a1e" fill-rule="nonzero" mask="url(#a)"/><text fill="#fff" font-family="Roboto-Regular, Roboto" font-size="11" mask="url(#b)"><tspan x="490" y="397">11:17 AM</tspan></text><text fill="#fff" font-family="Roboto-Regular, Roboto" font-size="11" mask="url(#b)"><tspan x="481" y="410">11/11/2017</tspan></text><g fill-rule="nonzero"><path d="m578 378h2v42h-2z" fill="#4e4e50" mask="url(#c)"/><path d="m402.517152 402.377333c-.98123-.681333-2.190291-1.044-3.517152-1.044s-2.537217.362667-3.517152 1.044l-1.052427-1.081333c1.238835-.901333 2.832362-1.296 4.569579-1.296 1.738511 0 3.332039.394667 4.568285 1.296zm2.864725-2.950666c-1.708738-1.389334-3.937864-2.093334-6.381877-2.093334s-4.674434.704-6.383172 2.093334l-.787055-.812c1.928803-1.656 4.431068-2.614667 7.170227-2.614667s5.242718.958667 7.170227 2.614667zm2.595469-2.673334c-2.397411-2.144-5.535275-3.42-8.977346-3.42s-6.579935 1.276-8.977346 3.42l-1.022654-1.052c2.645955-2.365333 6.148867-3.701333 10-3.701333s7.354045 1.336 10 3.701333zm-8.976183 9.246667c-.714931 0-1.294498-.596954-1.294498-1.333333 0-.73638.579567-1.333334 1.294498-1.333334.714932 0 1.294499.596954 1.294499 1.333334 0 .736379-.579567 1.333333-1.294499 1.333333z" fill="#fff" mask="url(#d)"/><path d="m422 394h18.75v10h-18.75zm1.25 8.75v-7.5h16.25v7.5zm19.47875-2.5h-1.97875v-1.25h.659583-.659583v-1.25h1.97875z" fill="#fff" mask="url(#e)"/><path d="m562.71875 406h7.03125v-16h-18.75v16h7.28125l2.21875 3.55z" fill="#fff" mask="url(#f)"/><path d="m562.25 404.75h6.25v-13.5h-16.25v13.5h6.5l1.75 2.8z" fill="#191a1e" mask="url(#g)"/><path d="m470.472481 407.664327-.808091-.782205c4.284682-4.437747 4.284682-11.661044 0-16.099917l.808091-.782205c4.703359 4.86993 4.703359 12.795523 0 17.664327zm-2.428775-2.345489-.809216-.782205c3.037656-3.145702 3.037656-8.263236 0-11.408939l.809216-.782204c3.455208 3.577884 3.455208 9.396589 0 12.973348zm-2.428775-2.34549-.809216-.782205c1.789505-1.851406 1.789505-4.865427 0-6.717959l.809216-.782205c2.205931 2.284714 2.205931 5.998781 0 8.282369zm-3.987557-9.302049v10.322855l-2.910478-2.910478h-1.591421v-4.501899h1.591421l.329764-.329764zm1.125475-1.591422h-1.125475l-3.376424 3.376425h-2.25095v6.752849h2.25095l3.376424 3.376424h1.125475z" fill="#fff" mask="url(#h)"/></g></g></svg>