<svg height="855" viewBox="0 0 450 855" width="450" xmlns="http://www.w3.org/2000/svg"><g fill="none" fill-rule="evenodd"><g fill="#ebebeb"><rect height="69.230769" rx="3.520209" width="7.040417" y="112.059974"/><rect height="69.230769" rx="3.520209" width="7.040417" y="193.024772"/><rect height="69.230769" rx="3.520209" width="7.040417" x="442.959583" y="262.255541"/></g><rect fill="#f2f2f2" height="854.82399" rx="58" width="442.372881" x="4.10691"/><path d="m6.45371578 58.666238v739.251618c0 28.508452 23.11779222 51.625821 51.63068852 51.625821h334.4178927c28.51679 0 51.630689-23.112661 51.630689-51.625821v-739.251618c0-28.5084519-23.117793-51.62582079-51.630689-51.62582079h-334.4178927c-28.51679 0-51.63068852 23.11266099-51.63068852 51.62582079z" fill="#fff" fill-rule="nonzero"/><path d="m14.0808344 70.4016659c0-12.959666 10.5078368-23.4655512 23.4646226-23.4655512h375.495787c12.959154 0 23.464623 10.509709 23.464623 23.4655512v715.7807621c0 12.959666-10.507837 23.465551-23.464623 23.465551h-375.495787c-12.9591532 0-23.4646226-10.509709-23.4646226-23.465551z" fill="#ebebeb"/><path d="m16.4276402 70.4016659v715.7807621c0 11.661138 9.456169 21.118745 21.1178168 21.118745h375.495787c11.661515 0 21.117817-9.456017 21.117817-21.118745v-715.7807621c0-11.6611378-9.456169-21.1187454-21.117817-21.1187454h-375.495787c-11.6615142 0-21.1178168 9.4560178-21.1178168 21.1187454z" fill="#f7f7f7" fill-rule="nonzero"/><g transform="translate(116.1 158.4)"><path d="m19.1539959 96.4754459h-3.4051835v9.4442911h-1.3897223v-9.4442911h-3.3979075v-1.1496133h8.1928133zm10.9965307-1.1496133v7.2032724c-.0048507.999247-.3189296 1.81658-.9422463 2.452024-.6233166.635443-1.4685406.991965-2.5356975 1.069576l-.3710777.014553c-1.1593204 0-2.0833674-.312867-2.7721686-.938609s-1.0380473-1.48673-1.0477488-2.582992v-7.2178244h1.3824463v7.1741684c0 .766413.2110029 1.361829.6330149 1.786266.422012.424438 1.0234914.636653 1.8044562.636653.7906662 0 1.3957836-.211003 1.8153703-.633015.4195866-.422012.6293768-1.016215.6293768-1.782628v-7.1814444zm10.1597869 5.6971344h-4.5911768v3.754433h5.3333322v1.142337h-6.7303306v-10.5939044h6.6575703v1.1496133h-5.2605719v3.4051835h4.5911768zm7.5695192.174624c-1.1981261-.3444-2.0700287-.767619-2.6157339-1.2696674-.5457052-.5020488-.8185537-1.1217181-.8185537-1.8590265 0-.8343226.3334815-1.5243262 1.0004545-2.0700314.6669731-.5457052 1.534025-.8185537 2.6011819-.8185537.7276069 0 1.37638.1406686 1.9463388.4220099.5699588.2813414 1.011367.6693926 1.324238 1.1641653s.4693042 1.0356191.4693042 1.6225554h-1.4042744c0-.6402941-.2037269-1.1435481-.6111868-1.5097769s-.9822608-.5493405-1.7244198-.5493405c-.6888013 0-1.2260097.1515825-1.6116414.4547521-.3856317.3031695-.5784446.7239626-.5784446 1.2623917 0 .4317135.1831117.7967242.5493405 1.095043.3662288.2983189.9895361.5711674 1.8699405.8185537s1.5691953.5202353 2.0663934.8185533c.4971981.298319.8658467.646353 1.105957 1.044111.2401103.397759.3601637.865845.3601637 1.404275 0 .858576-.3346942 1.546154-1.0040926 2.062755s-1.5643415.774898-2.6848562.774898c-.727607 0-1.4066966-.139456-2.0372893-.418372s-1.1168694-.660904-1.4588446-1.145976c-.3419753-.485071-.5129604-1.035619-.5129604-1.651659h1.4042744c0 .640294.2364687 1.145973.7094133 1.517053.4729445.371079 1.1047404.556616 1.8954066.556616.7373084 0 1.3024079-.15037 1.6953157-.451114.3929077-.300744.5893587-.710623.5893587-1.229649 0-.519027-.181899-.920417-.5457025-1.204184s-1.0234906-.563891-1.979081-.840382zm7.6859357 4.722146v-10.5939044h2.9904496c.9216354 0 1.736543.2037269 2.4447471.6111868s1.2551138.9871114 1.6407455 1.7389719c.3856316.7518606.5808699 1.6152745.5857206 2.5902677v.676671c0 .999247-.1928129 1.874788-.5784446 2.626648-.3856317.751861-.9361794 1.329087-1.6516595 1.731696-.7154802.402609-1.5485777.608761-2.4993174.618463zm1.3969983-9.4442911v8.3019541h1.4697587c1.0768583 0 1.9148064-.334695 2.5138694-1.004093.5990631-.669398.8985901-1.622549.8985901-2.859481v-.618463c0-1.2029766-.2825498-2.1379375-.8476578-2.8049105-.5651081-.666973-1.3666764-1.0053052-2.404729-1.0150066zm16.1916184 6.6793981h-4.4383802l-.9968165 2.764893h-1.4406546l4.0454744-10.5939044h1.2223736l4.0527504 10.5939044h-1.4333785zm-4.0163703-1.149613h3.6016364l-1.8044562-4.9549785zm12.4008051-1.360618 2.7648926-5.3187804h1.5861752l-3.6525686 6.6430184v3.950886h-1.3969983v-3.950886l-3.6525687-6.6430184h1.6007273zm5.8960316 7.385173-.7639835-.523874c.455967-.635443.6936484-1.29028.7130512-1.964529v-1.215097h1.316962v1.055024c0 .489922-.1200533.979837-.3601636 1.469759s-.5420627.882824-.9058661 1.178717zm18.9516795-7.065028c0 1.038053-.174623 1.94391-.523874 2.717599-.349252.773688-.844017 1.364254-1.484311 1.771714s-1.387293.611187-2.241018.611187c-.834323 0-1.574046-.20494-2.2191903-.614825-.6451449-.409886-1.1459735-.994388-1.5025009-1.753524-.3565274-.759137-.539639-1.638315-.5493405-2.637562v-.763984c0-1.0186495.1770484-1.9184432.5311505-2.699408.354102-.7809648.8549306-1.3788062 1.5025008-1.7935422.6475704-.4147359 1.3885054-.6221008 2.2228284-.6221008.848874 0 1.597086.2049395 2.244656.6148248.64757.4098852 1.145973 1.0040887 1.495225 1.7826281.349251.7785394.523874 1.6843965.523874 2.7175981zm-1.389722-.683947c0-1.2563345-.252234-2.2203992-.756708-2.892223-.504474-.6718237-1.210242-1.0077306-2.117325-1.0077306-.88283 0-1.577684.3359069-2.084584 1.0077306-.5068993.6718238-.7676212 1.6043594-.7821733 2.797635v.778535c0 1.217529.2558712 2.174318.7676213 2.870395.51175.696078 1.216306 1.044111 2.113688 1.044111.902232 0 1.600725-.328631 2.095497-.985902.494773-.657272.749432-1.599509.763984-2.826739zm13.244825 2.277399c-.13097 1.120514-.544487 1.985141-1.240564 2.593905-.696077.608765-1.621337.913143-2.775807.913143-1.251483 0-2.254353-.448685-3.008639-1.346067s-1.131423-2.097915-1.131423-3.601636v-1.018645c0-.9846944.175835-1.8505337.527512-2.5975435s.85008-1.320598 1.495225-1.7207818 1.392143-.6002727 2.241018-.6002727c1.125365 0 2.027585.3140789 2.706684.9422463.6791.6281673 1.074427 1.4976446 1.185994 2.6084578h-1.404275c-.121267-.844024-.384415-1.4552047-.789449-1.8335603-.405035-.3783556-.971347-.5675306-1.698954-.5675306-.892531 0-1.592236.3298436-2.099136.9895405-.506899.659697-.760345 1.5982959-.760345 2.8158253v1.02592c0 1.149619.240107 2.063965.720327 2.743065.480221.679099 1.152035 1.018644 2.015461 1.018644.776115 0 1.371531-.175835 1.786267-.527512s.690009-.96407.825829-1.837198zm10.981978-6.0827641h-3.405183v9.4442911h-1.389722v-9.4442911h-3.397908v-1.1496133h8.192813zm11.484025 4.4893121c0 1.038053-.174623 1.94391-.523874 2.717599-.349251.773688-.844017 1.364254-1.484311 1.771714s-1.387292.611187-2.241018.611187c-.834323 0-1.574045-.20494-2.21919-.614825-.645145-.409886-1.145974-.994388-1.502501-1.753524-.356527-.759137-.539639-1.638315-.54934-2.637562v-.763984c0-1.0186495.177048-1.9184432.53115-2.699408s.854931-1.3788062 1.502501-1.7935422c.64757-.4147359 1.388505-.6221008 2.222828-.6221008.848875 0 1.597086.2049395 2.244656.6148248.64757.4098852 1.145974 1.0040887 1.495225 1.7826281s.523874 1.6843965.523874 2.7175981zm-1.389722-.683947c0-1.2563345-.252233-2.2203992-.756707-2.892223-.504475-.6718237-1.210243-1.0077306-2.117326-1.0077306-.88283 0-1.577684.3359069-2.084584 1.0077306-.506899.6718238-.767621 1.6043594-.782173 2.797635v.778535c0 1.217529.255871 2.174318.767621 2.870395.511751.696078 1.216306 1.044111 2.113688 1.044111.902233 0 1.600725-.328631 2.095498-.985902.494772-.657272.749431-1.599509.763983-2.826739zm5.452194 5.638926v-10.5939044h3.463391c1.149619 0 2.014246.2376814 2.593906.7130513s.869486 1.1787127.869486 2.1100496c0 .4947727-.140669.932543-.42201 1.313324-.281341.3807809-.664542.6754575-1.149613.8840375.572384.160074 1.024706.464452 1.35698.913143s.498408.983474.498408 1.604365c0 .95074-.308015 1.697738-.924056 2.241018-.61604.54328-1.48673.814916-2.612096.814916zm1.396998-4.954979v3.812642h2.306502c.649996 0 1.162951-.16856 1.538881-.505685.375931-.337124.563893-.801573.563893-1.39336 0-1.275738-.693642-1.913597-2.080946-1.913597zm0-1.1205088h2.110049c.61119 0 1.099892-.1527952 1.466121-.4583901s.549341-.7203246.549341-1.2442016c0-.5820856-.169773-1.005304-.509323-1.2696678-.33955-.2643639-.856143-.3965438-1.549795-.3965438h-2.066393zm15.835093 1.1787178h-4.591177v3.754433h5.333332v1.142337h-6.730331v-10.5939044h6.657571v1.1496133h-5.260572v3.4051835h4.591177zm8.333502.611186h-2.488403v4.285584h-1.404274v-10.5939044h3.507048c1.193275 0 2.111259.2716359 2.753978.8149158.64272.5432798.964074 1.3339342.964074 2.3719867 0 .659697-.178261 1.2344979-.534788 1.7244199s-.852505.856145-1.487949 1.098681l2.488404 4.496588v.087313h-1.498863zm-2.488403-1.142337h2.14643c.693652 0 1.245412-.179474 1.655297-.5384263.409885-.3589528.614825-.8391661.614825-1.4406546 0-.6548462-.195238-1.1568875-.585721-1.5061388-.390482-.3492513-.954369-.5262997-1.691677-.5311504h-2.139154zm19.475554 5.427921h-1.353342v-8.971349l-2.713961.9968166v-1.2223736l3.856298-1.4479306h.211005zm11.593165-3.55798h1.469759v1.098681h-1.469759v2.459299h-1.353342v-2.459299h-4.82401v-.793088l4.743974-7.3415174h1.433378zm-4.649385 0h3.296043v-5.195088l-.160072.2910413z" fill="#e6e6e6"/><path d="m24.1073152 65.9842105h-5.4133686v-59.18616363l-17.86411647 6.63137653v-5.05247734l22.37525697-8.30049856h.9022281zm51.9763133 0h-5.4133686v-59.18616363l-17.8641165 6.63137653v-5.05247734l22.375257-8.30049856h.9022281zm75.2166615 0h-5.413369v-59.18616363l-17.864116 6.63137653v-5.05247734l22.375257-8.30049856h.902228zm67.314191-62.56951902-28.059294 62.56951902h-5.638926l27.878849-61.08084264h-37.352244v-4.60136334h43.171615z" fill="#e6e6e6"/><g fill="#dedede"><circle cx="106.348026" cy="8.465132" r="4.470395"/><circle cx="106.348026" cy="50.188816" r="4.470395"/></g></g><g fill="#ebebeb" transform="translate(33.3 56.7)"><path d="m352.864286 0c-3.736607 0-7.224107 1.25357143-9.964286 3.34285714l9.964286 13.37142856 9.964285-13.37142856c-2.740178-2.08928571-6.227678-3.34285714-9.964285-3.34285714zm0 6.68571429c-1.660715 0-3.155357.41785714-4.566965 1.08642857l-2.989285-4.01142857c2.241964-1.33714286 4.816071-2.08928572 7.55625-2.08928572 2.740178 0 5.314285.75214286 7.55625 2.08928572l-2.989286 4.095c-1.411607-.75214286-2.90625-1.17-4.566964-1.17z"/><path d="m333.148352 5.22321429-4.50989-4.58035715h-.791209v6.10714286l-3.639561-3.69642857-1.107692 1.125 4.430769 4.5-4.430769 4.49999997 1.107692 1.125 3.639561-3.6964285v6.1071428h.791209l4.50989-4.5803571-3.402198-3.45535717zm-3.718682-1.52678572 1.503297 1.52678572-1.503297 1.52678571zm1.503297 8.43750003-1.503297 1.5267857v-3.0535714z"/><path d="m380.515396 2.13142857h-1.843832v-1.70857143h-4.416365v1.70857143h-1.843833c-.805987 0-1.468441.51257143-1.468441 1.1362v13.09620003c0 .6321714.662454 1.1447428 1.468441 1.1447428h8.092989c.817028 0 1.479483-.5125714 1.479483-1.1362v-13.10474283c0-.62362857-.662455-1.1362-1.468442-1.1362zm-5.156106 13.66857143v-4.6985714h-2.208183l4.416365-6.40714289v4.69857143h2.208183z" fill-rule="nonzero"/></g><g fill="#ebebeb"><circle cx="75.825" cy="25.9875" r="5.625"/><rect height="12.9375" rx="6.46875" width="30.9375" x="117.1125" y="19.2375"/><circle cx="99" cy="25.9875" r="7.875"/><ellipse cx="309.6" cy="27.272459" rx="11.25" ry="11.072459"/><ellipse cx="342.05625" cy="26.140033" rx="8.15625" ry="8.027533"/><rect height="13.5" rx="6.75" width="54" x="198" y="19.8"/></g></g></svg>